<?xml version="1.0" encoding="UTF-8" standalone="no"?>
<!DOCTYPE svg PUBLIC "-//W3C//DTD SVG 1.1//EN" "http://www.w3.org/Graphics/SVG/1.1/DTD/svg11.dtd">
<svg version="1.1" xmlns="http://www.w3.org/2000/svg" xmlns:xlink="http://www.w3.org/1999/xlink" preserveAspectRatio="xMidYMid meet" viewBox="0 0 63.12 66.133" width="63.12" height="66.13"><defs><path d="M8 52.83L50.3 52.83L50.3 18.42L42.35 18.42L42.35 0L29.03 0L29.03 7.91L8 7.91L8 52.83Z" id="aaDNVXyUW"></path><clipPath id="clipc6XZtwl2on"><use xlink:href="#aaDNVXyUW" opacity="1"></use></clipPath><path d="M50.3 31.59L55.5 31.59L55.5 28.88L58.29 28.88L58.29 26.36L60.96 26.36L60.96 18.53L63.33 18.53L63.33 15.78L59.37 15.78L59.37 7.91L57.01 7.91L57.01 15.89L53.05 15.89L53.05 18.53L55.5 18.53L55.5 26.5L50.3 26.5L50.3 31.59Z" id="a6uJxGDDz"></path><path d="M37.12 27.73L42.35 27.73L42.35 35.68L37.12 35.68L37.12 27.73Z" id="a2xEhZVZka"></path><path d="M13.1 27.69L18.57 27.69L18.57 35.68L13.1 35.68L13.1 27.69Z" id="azdsFWM0e"></path><path d="M14.49 39.66L41.14 39.66L41.14 47.76L14.49 47.76L14.49 39.66Z" id="g3LYuuiJDB"></path><clipPath id="clipclo8c51ff"><use xlink:href="#g3LYuuiJDB" opacity="1"></use></clipPath><path d="M22.45 19.82L22.45 22.56L23.78 22.56L23.78 25.1L25.05 25.1L25.05 27.73L26.38 27.73L26.38 30.36L21.06 30.36L21.06 27.69L19.71 27.69L19.71 24.96L18.49 24.96L18.49 22.42L17.14 22.42L17.14 19.82L22.45 19.82Z" id="h2wZjNNXHh"></path><path d="M32.96 19.82L32.96 22.56L31.63 22.56L31.63 25.1L30.36 25.1L30.36 27.73L29.03 27.73L29.03 30.36L34.34 30.36L34.34 27.69L35.7 27.69L35.7 24.96L36.92 24.96L36.92 22.42L38.27 22.42L38.27 19.82L32.96 19.82Z" id="cpV6zp4QV"></path><path d="M26.38 52.83L26.38 65.97L10.66 65.97L10.66 58.13L18.57 58.13L18.57 52.83" id="h3ikyFW4CE"></path><clipPath id="clipbxEsT2nno"><use xlink:href="#h3ikyFW4CE" opacity="1"></use></clipPath><path d="M31.85 52.83L31.85 65.97L47.56 65.97L47.56 58.13L39.66 58.13L39.66 52.83" id="a3oRzmihG9"></path><clipPath id="clipa3xhLZSALz"><use xlink:href="#a3oRzmihG9" opacity="1"></use></clipPath><path d="M8 34.44L5.02 34.44L5.02 42.12L0 42.12L0 31.59L2.67 31.59L2.67 29.03L8 29.03" id="fSYa6AcPA"></path></defs><g><g><g><use xlink:href="#aaDNVXyUW" opacity="1" fill="#000000" fill-opacity="0"></use><g clip-path="url(#clipc6XZtwl2on)"><use xlink:href="#aaDNVXyUW" opacity="1" fill-opacity="0" stroke="#ff47e8" stroke-width="6" stroke-opacity="1"></use></g></g><g><use xlink:href="#a6uJxGDDz" opacity="1" fill="#00e2ff" fill-opacity="1"></use></g><g><use xlink:href="#a2xEhZVZka" opacity="1" fill="#00e2ff" fill-opacity="1"></use></g><g><use xlink:href="#azdsFWM0e" opacity="1" fill="#00e2ff" fill-opacity="1"></use></g><g><g clip-path="url(#clipclo8c51ff)"><use xlink:href="#g3LYuuiJDB" opacity="1" fill-opacity="0" stroke="#00e2ff" stroke-width="6" stroke-opacity="1"></use></g></g><g><use xlink:href="#h2wZjNNXHh" opacity="1" fill="#00e2ff" fill-opacity="1"></use></g><g><use xlink:href="#cpV6zp4QV" opacity="1" fill="#00e2ff" fill-opacity="1"></use></g><g><g clip-path="url(#clipbxEsT2nno)"><use xlink:href="#h3ikyFW4CE" opacity="1" fill-opacity="0" stroke="#00e2ff" stroke-width="6" stroke-opacity="1"></use></g></g><g><g clip-path="url(#clipa3xhLZSALz)"><use xlink:href="#a3oRzmihG9" opacity="1" fill-opacity="0" stroke="#00e2ff" stroke-width="6" stroke-opacity="1"></use></g></g><g><use xlink:href="#fSYa6AcPA" opacity="1" fill="#00e2ff" fill-opacity="1"></use></g></g></g></svg>